<?xml version="1.0" encoding="UTF-8" standalone="no"?>
<svg
   xmlns:dc="http://purl.org/dc/elements/1.1/"
   xmlns:cc="http://creativecommons.org/ns#"
   xmlns:rdf="http://www.w3.org/1999/02/22-rdf-syntax-ns#"
   xmlns:svg="http://www.w3.org/2000/svg"
   xmlns="http://www.w3.org/2000/svg"
   xmlns:xlink="http://www.w3.org/1999/xlink"
   xmlns:sodipodi="http://sodipodi.sourceforge.net/DTD/sodipodi-0.dtd"
   xmlns:inkscape="http://www.inkscape.org/namespaces/inkscape"
   sodipodi:docname="ICON_Contact-agenda.svg"
   xml:space="preserve"
   height="60"
   width="60"
   inkscape:version="1.0 (4035a4fb49, 2020-05-01)"
   version="1.1"
   id="svg7821"><metadata
     id="metadata7827"><rdf:RDF><cc:Work
         rdf:about=""><dc:format>image/svg+xml</dc:format><dc:type
           rdf:resource="http://purl.org/dc/dcmitype/StillImage" /><dc:title></dc:title></cc:Work></rdf:RDF></metadata><defs
     id="defs7825"><clipPath
   id="clipPath7865"
   clipPathUnits="userSpaceOnUse"><path
     id="path7867"
     d="m 3175,8125 c 0,-717.97 -582.03,-1300 -1300,-1300 -717.97,0 -1300,582.03 -1300,1300 0,717.97 582.03,1300 1300,1300 717.97,0 1300,-582.03 1300,-1300" /></clipPath><clipPath
   id="clipPath8209"
   clipPathUnits="userSpaceOnUse"><path
     id="path8211"
     d="m 1101.61,8805.58 c 0,-151.84 -123.087,-274.92 -274.915,-274.92 -151.847,0 -274.922,123.08 -274.922,274.92 0,151.83 123.075,274.91 274.922,274.91 151.828,0 274.915,-123.08 274.915,-274.91" /></clipPath><clipPath
   id="clipPath9291"
   clipPathUnits="userSpaceOnUse"><path
     id="path9293"
     d="m 3175,5000 c 0,-717.97 -582.03,-1300 -1300,-1300 -717.97,0 -1300,582.03 -1300,1300 0,717.97 582.03,1300 1300,1300 717.97,0 1300,-582.03 1300,-1300" /></clipPath><clipPath
   id="clipPath10007"
   clipPathUnits="userSpaceOnUse"><path
     id="path10009"
     d="m 9425,5000 c 0,-717.97 -582.03,-1300 -1300,-1300 -717.97,0 -1300,582.03 -1300,1300 0,717.97 582.03,1300 1300,1300 717.97,0 1300,-582.03 1300,-1300" /></clipPath><clipPath
   id="clipPath10259"
   clipPathUnits="userSpaceOnUse"><path
     id="path10261"
     d="m 6025.85,2673.61 v 0 230.45 h -186.94 v -35.93 0 35.93 H 5814.75 6050 v 59.18 -59.18 h -24.15 v -230.45" /></clipPath><clipPath
   id="clipPath10539"
   clipPathUnits="userSpaceOnUse"><path
     id="path10541"
     d="M 3175,1875 C 3175,1157.03 2592.97,575 1875,575 1157.03,575 575,1157.03 575,1875 c 0,717.97 582.03,1300 1300,1300 717.97,0 1300,-582.03 1300,-1300" /></clipPath><clipPath
   id="clipPath11045"
   clipPathUnits="userSpaceOnUse"><path
     id="path11047"
     d="m 9425,1875 c 0,-717.97 -582.03,-1300 -1300,-1300 -717.97,0 -1300,582.03 -1300,1300 0,717.97 582.03,1300 1300,1300 717.97,0 1300,-582.03 1300,-1300" /></clipPath>
	
	

	
	

	
	

	
	

	
	

	
	

	
	

	
	

	
	
	
	
	
	
















	
	
<clipPath
   id="clipPath7865-5"
   clipPathUnits="userSpaceOnUse"><path
     id="path7867-3"
     d="m 3175,8125 c 0,-717.97 -582.03,-1300 -1300,-1300 -717.97,0 -1300,582.03 -1300,1300 0,717.97 582.03,1300 1300,1300 717.97,0 1300,-582.03 1300,-1300" /></clipPath><clipPath
   id="clipPath8209-5"
   clipPathUnits="userSpaceOnUse"><path
     id="path8211-6"
     d="m 1101.61,8805.58 c 0,-151.84 -123.087,-274.92 -274.915,-274.92 -151.847,0 -274.922,123.08 -274.922,274.92 0,151.83 123.075,274.91 274.922,274.91 151.828,0 274.915,-123.08 274.915,-274.91" /></clipPath><clipPath
   id="clipPath9291-2"
   clipPathUnits="userSpaceOnUse"><path
     id="path9293-9"
     d="m 3175,5000 c 0,-717.97 -582.03,-1300 -1300,-1300 -717.97,0 -1300,582.03 -1300,1300 0,717.97 582.03,1300 1300,1300 717.97,0 1300,-582.03 1300,-1300" /></clipPath><clipPath
   id="clipPath10007-1"
   clipPathUnits="userSpaceOnUse"><path
     id="path10009-2"
     d="m 9425,5000 c 0,-717.97 -582.03,-1300 -1300,-1300 -717.97,0 -1300,582.03 -1300,1300 0,717.97 582.03,1300 1300,1300 717.97,0 1300,-582.03 1300,-1300" /></clipPath><clipPath
   id="clipPath10259-7"
   clipPathUnits="userSpaceOnUse"><path
     id="path10261-0"
     d="m 6025.85,2673.61 v 0 230.45 h -186.94 v -35.93 0 35.93 H 5814.75 6050 v 59.18 -59.18 h -24.15 v -230.45" /></clipPath><clipPath
   id="clipPath10539-9"
   clipPathUnits="userSpaceOnUse"><path
     id="path10541-3"
     d="M 3175,1875 C 3175,1157.03 2592.97,575 1875,575 1157.03,575 575,1157.03 575,1875 c 0,717.97 582.03,1300 1300,1300 717.97,0 1300,-582.03 1300,-1300" /></clipPath><clipPath
   id="clipPath11045-6"
   clipPathUnits="userSpaceOnUse"><path
     id="path11047-0"
     d="m 9425,1875 c 0,-717.97 -582.03,-1300 -1300,-1300 -717.97,0 -1300,582.03 -1300,1300 0,717.97 582.03,1300 1300,1300 717.97,0 1300,-582.03 1300,-1300" /></clipPath>
	
	
	
	
	
	
	
	
	
	
	
	
	

	
	
	
	
	
	
	















<linearGradient
   id="linearGradient3867"><stop
     style="stop-color:#ffffff;stop-opacity:1;"
     offset="0"
     id="stop3869" /><stop
     style="stop-color:#ffffff;stop-opacity:0;"
     offset="1"
     id="stop3871" /></linearGradient><linearGradient
   id="linearGradient3855"><stop
     style="stop-color:#b46e28;stop-opacity:1;"
     offset="0"
     id="stop3857" /><stop
     id="stop3865"
     offset="0.36323774"
     style="stop-color:#b46e28;stop-opacity:1;" /><stop
     id="stop3863"
     offset="0.73150826"
     style="stop-color:#bea05a;stop-opacity:1;" /><stop
     style="stop-color:#b46e28;stop-opacity:1;"
     offset="1"
     id="stop3859" /></linearGradient><linearGradient
   id="linearGradient3837"><stop
     style="stop-color:#c8a046;stop-opacity:1;"
     offset="0"
     id="stop3839" /><stop
     id="stop3853"
     offset="0.10781151"
     style="stop-color:#c8a046;stop-opacity:1;" /><stop
     id="stop3847"
     offset="0.3255192"
     style="stop-color:#d7be6e;stop-opacity:1;" /><stop
     id="stop3845"
     offset="0.63150334"
     style="stop-color:#d7be6e;stop-opacity:1;" /><stop
     style="stop-color:#c8a046;stop-opacity:1;"
     offset="0.91747987"
     id="stop3851" /><stop
     style="stop-color:#c8a046;stop-opacity:1;"
     offset="1"
     id="stop3841" /></linearGradient><linearGradient
   inkscape:collect="always"
   id="linearGradient3829"><stop
     style="stop-color:#333333;stop-opacity:1;"
     offset="0"
     id="stop3831" /><stop
     style="stop-color:#333333;stop-opacity:0;"
     offset="1"
     id="stop3833" /></linearGradient><inkscape:perspective
   sodipodi:type="inkscape:persp3d"
   inkscape:vp_x="0 : 386.18109 : 1"
   inkscape:vp_y="0 : 1000 : 0"
   inkscape:vp_z="744.09448 : 386.18109 : 1"
   inkscape:persp3d-origin="372.04724 : 210.78739 : 1"
   id="perspective10" /><inkscape:perspective
   id="perspective3033"
   inkscape:persp3d-origin="0.5 : -139.66667 : 1"
   inkscape:vp_z="1 : -139.5 : 1"
   inkscape:vp_y="0 : 1000 : 0"
   inkscape:vp_x="0 : -139.5 : 1"
   sodipodi:type="inkscape:persp3d" /><radialGradient
   inkscape:collect="always"
   xlink:href="#linearGradient3829"
   id="radialGradient3835"
   cx="23.484375"
   cy="1044.7242"
   fx="23.484375"
   fy="1044.7242"
   r="17.740803"
   gradientTransform="matrix(1,0,0,0.25266895,0,780.21909)"
   gradientUnits="userSpaceOnUse" /><linearGradient
   inkscape:collect="always"
   xlink:href="#linearGradient3837"
   id="linearGradient3843"
   x1="5.75"
   y1="26.640625"
   x2="41.21875"
   y2="26.640625"
   gradientUnits="userSpaceOnUse" /><linearGradient
   inkscape:collect="always"
   xlink:href="#linearGradient3855"
   id="linearGradient3861"
   x1="47.477173"
   y1="9.0459929"
   x2="81.696091"
   y2="9.0459929"
   gradientUnits="userSpaceOnUse" /><linearGradient
   inkscape:collect="always"
   xlink:href="#linearGradient3867"
   id="linearGradient3873"
   x1="24.378904"
   y1="997.66791"
   x2="24.378904"
   y2="988.50281"
   gradientUnits="userSpaceOnUse"
   gradientTransform="matrix(0.99130186,0,0,0.96518914,-0.68080425,56.534513)" /><radialGradient
   inkscape:collect="always"
   xlink:href="#linearGradient3829"
   id="radialGradient2869"
   gradientUnits="userSpaceOnUse"
   gradientTransform="matrix(1,0,0,0.25266895,0,780.21909)"
   cx="23.484375"
   cy="1044.7242"
   fx="23.484375"
   fy="1044.7242"
   r="17.740803" /><inkscape:perspective
   id="perspective2932"
   inkscape:persp3d-origin="0.5 : -139.66667 : 1"
   inkscape:vp_z="1 : -139.5 : 1"
   inkscape:vp_y="0 : 1000 : 0"
   inkscape:vp_x="0 : -139.5 : 1"
   sodipodi:type="inkscape:persp3d" /><linearGradient
   x1="25.632622"
   y1="10.611729"
   x2="38.714096"
   y2="18.389904"
   id="linearGradient3096"
   xlink:href="#linearGradient5176"
   gradientUnits="userSpaceOnUse"
   gradientTransform="matrix(0.3732356,0,0,0.3732356,10.394875,1004.3504)" /><linearGradient
   id="linearGradient5176"><stop
     id="stop5178"
     style="stop-color:black;stop-opacity:1"
     offset="0" /><stop
     id="stop5180"
     style="stop-color:black;stop-opacity:0"
     offset="1" /></linearGradient><linearGradient
   x1="24.365993"
   y1="20.246058"
   x2="32.600704"
   y2="28.554564"
   id="linearGradient3100"
   xlink:href="#linearGradient5162"
   gradientUnits="userSpaceOnUse"
   gradientTransform="matrix(0.3732356,0,0,0.3732356,10.394875,1004.3504)" /><linearGradient
   id="linearGradient5162"><stop
     id="stop5164"
     style="stop-color:#babdb6;stop-opacity:1"
     offset="0" /><stop
     id="stop5166"
     style="stop-color:white;stop-opacity:1"
     offset="1" /></linearGradient><linearGradient
   x1="22.008699"
   y1="36.509514"
   x2="23.585091"
   y2="14.412428"
   id="linearGradient3103"
   xlink:href="#linearGradient5162"
   gradientUnits="userSpaceOnUse"
   gradientTransform="matrix(0.3732356,0,0,0.3732356,10.394875,1004.3504)" /><radialGradient
   cx="23.688078"
   cy="14.210698"
   r="22.597088"
   fx="23.688078"
   fy="14.210698"
   id="radialGradient3106"
   xlink:href="#linearGradient5188"
   gradientUnits="userSpaceOnUse"
   gradientTransform="matrix(0.79710695,0,0,0.78775367,0.35418029,998.50213)" /><linearGradient
   id="linearGradient5188"><stop
     id="stop5190"
     style="stop-color:white;stop-opacity:1"
     offset="0" /><stop
     id="stop5192"
     style="stop-color:#aeaea3;stop-opacity:1"
     offset="1" /></linearGradient><radialGradient
   cx="20.089987"
   cy="10.853651"
   r="22.597088"
   fx="20.089987"
   fy="10.853651"
   id="radialGradient3108"
   xlink:href="#linearGradient5196"
   gradientUnits="userSpaceOnUse"
   gradientTransform="matrix(0.66819212,0,0,0.66035194,4.4925493,999.89033)" /><linearGradient
   id="linearGradient5196"><stop
     id="stop5198"
     style="stop-color:#dfe2dc;stop-opacity:1"
     offset="0" /><stop
     id="stop5200"
     style="stop-color:#86917a;stop-opacity:1"
     offset="1" /></linearGradient><linearGradient
   x1="24.365993"
   y1="20.246058"
   x2="32.600704"
   y2="28.554564"
   id="linearGradient3127"
   xlink:href="#linearGradient5162"
   gradientUnits="userSpaceOnUse"
   gradientTransform="matrix(0,0.3732356,0.3732356,0,3.2679653,1007.0554)" /><linearGradient
   x1="22.008699"
   y1="36.509514"
   x2="23.585091"
   y2="14.412428"
   id="linearGradient3130"
   xlink:href="#linearGradient5162"
   gradientUnits="userSpaceOnUse"
   gradientTransform="matrix(0,0.3732356,0.3732356,0,3.2679653,1007.0554)" /><radialGradient
   cx="23.688078"
   cy="14.210698"
   r="22.597088"
   fx="23.688078"
   fy="14.210698"
   id="radialGradient3133"
   xlink:href="#linearGradient5188"
   gradientUnits="userSpaceOnUse"
   gradientTransform="matrix(0,0.79710695,0.78775367,0,-2.5803157,997.01473)" /><radialGradient
   cx="20.089987"
   cy="10.853651"
   r="22.597088"
   fx="20.089987"
   fy="10.853651"
   id="radialGradient3135"
   xlink:href="#linearGradient5196"
   gradientUnits="userSpaceOnUse"
   gradientTransform="matrix(0,0.66819212,0.66035194,0,-1.1921887,1001.1531)" /><linearGradient
   x1="25.632622"
   y1="10.611729"
   x2="38.714096"
   y2="18.389904"
   id="linearGradient3150"
   xlink:href="#linearGradient5176"
   gradientUnits="userSpaceOnUse"
   gradientTransform="matrix(-0.3732356,0,0,0.3732356,44.001046,1006.3504)" /><linearGradient
   x1="24.365993"
   y1="20.246058"
   x2="32.600704"
   y2="28.554564"
   id="linearGradient3154"
   xlink:href="#linearGradient5162"
   gradientUnits="userSpaceOnUse"
   gradientTransform="matrix(-0.3732356,0,0,0.3732356,44.001046,1006.3504)" /><radialGradient
   cx="23.688078"
   cy="14.210698"
   r="22.597088"
   fx="23.688078"
   fy="14.210698"
   id="radialGradient3160"
   xlink:href="#linearGradient5188"
   gradientUnits="userSpaceOnUse"
   gradientTransform="matrix(-0.79710695,0,0,0.78775367,54.041741,1000.5021)" /><radialGradient
   cx="20.089987"
   cy="10.853651"
   r="22.597088"
   fx="20.089987"
   fy="10.853651"
   id="radialGradient3162"
   xlink:href="#linearGradient5196"
   gradientUnits="userSpaceOnUse"
   gradientTransform="matrix(-0.66819212,0,0,0.66035194,49.903372,1001.8903)" /><linearGradient
   x1="25.632622"
   y1="10.611729"
   x2="38.714096"
   y2="18.389904"
   id="linearGradient3177"
   xlink:href="#linearGradient5176"
   gradientUnits="userSpaceOnUse"
   gradientTransform="matrix(0,-0.3732356,0.3732356,0,18.689866,1022.6616)" /><linearGradient
   x1="24.365993"
   y1="20.246058"
   x2="32.600704"
   y2="28.554564"
   id="linearGradient3181"
   xlink:href="#linearGradient5162"
   gradientUnits="userSpaceOnUse"
   gradientTransform="matrix(0,-0.3732356,0.3732356,0,18.689866,1022.6616)" /><linearGradient
   x1="22.008699"
   y1="36.509514"
   x2="23.585091"
   y2="14.412428"
   id="linearGradient3184"
   xlink:href="#linearGradient5162"
   gradientUnits="userSpaceOnUse"
   gradientTransform="matrix(0,-0.3732356,0.3732356,0,18.689866,1022.6616)" /><radialGradient
   cx="23.688078"
   cy="14.210698"
   r="22.597088"
   fx="23.688078"
   fy="14.210698"
   id="radialGradient3187"
   xlink:href="#linearGradient5188"
   gradientUnits="userSpaceOnUse"
   gradientTransform="matrix(0,-0.79710695,0.78775367,0,12.841585,1032.7023)" /><radialGradient
   cx="20.089987"
   cy="10.853651"
   r="22.597088"
   fx="20.089987"
   fy="10.853651"
   id="radialGradient3189"
   xlink:href="#linearGradient5196"
   gradientUnits="userSpaceOnUse"
   gradientTransform="matrix(0,-0.66819212,0.66035194,0,14.229712,1028.5639)" /><linearGradient
   gradientTransform="translate(0.11364329,1004.8611)"
   x1="40.702"
   y1="8.5"
   x2="43.699654"
   y2="8.5"
   id="linearGradient2991"
   xlink:href="#linearGradient157"
   gradientUnits="userSpaceOnUse" /><linearGradient
   id="linearGradient157"><stop
     id="stop158"
     style="stop-color:#cacbc5;stop-opacity:1"
     offset="0" /><stop
     id="stop159"
     style="stop-color:#f0f0f0;stop-opacity:1"
     offset="1" /></linearGradient><linearGradient
   x1="5.3863635"
   y1="38.746311"
   x2="19.737663"
   y2="21.169638"
   id="linearGradient3054"
   xlink:href="#linearGradient161-689-862"
   gradientUnits="userSpaceOnUse"
   gradientTransform="matrix(2.4401052,0,0,0.2975287,-3.1619921,2.1856977)" /><linearGradient
   id="linearGradient161-689-862"><stop
     id="stop3698"
     style="stop-color:#81857e;stop-opacity:1"
     offset="0" /><stop
     id="stop3700"
     style="stop-color:#b3b4b1;stop-opacity:1"
     offset="1" /></linearGradient><linearGradient
   inkscape:collect="always"
   xlink:href="#linearGradient3837"
   id="linearGradient3128"
   gradientUnits="userSpaceOnUse"
   x1="5.75"
   y1="26.640625"
   x2="41.21875"
   y2="26.640625"
   gradientTransform="matrix(1.128496,0,0,1.128496,-2.5030781,999.86001)" /></defs><sodipodi:namedview
     inkscape:snap-global="false"
     inkscape:snap-bbox="true"
     inkscape:snap-smooth-nodes="true"
     inkscape:snap-intersection-paths="true"
     inkscape:object-paths="true"
     inkscape:document-rotation="0"
     inkscape:current-layer="g7829"
     inkscape:window-maximized="1"
     inkscape:window-y="760"
     inkscape:window-x="-8"
     inkscape:cy="55.977761"
     inkscape:cx="1.8485371"
     inkscape:zoom="3.8602374"
     showgrid="false"
     id="namedview7823"
     inkscape:window-height="801"
     inkscape:window-width="1536"
     inkscape:pageshadow="2"
     inkscape:pageopacity="0"
     guidetolerance="10"
     gridtolerance="10"
     objecttolerance="10"
     borderopacity="1"
     bordercolor="#666666"
     pagecolor="#ffffff" /><g
     transform="matrix(1.25,0,0,-1.25,0,1250)"
     inkscape:label="ink_ext_XXXXXX"
     inkscape:groupmode="layer"
     id="g7829"><text
       transform="scale(1,-1)"
       xml:space="preserve"
       style="font-weight:bold;font-size:160px;line-height:1;font-family:Montserrat;-inkscape-font-specification:'Montserrat Bold';writing-mode:lr-tb;opacity:0.06;fill:#8ae234;fill-opacity:1;fill-rule:evenodd;stroke:#babdb6;stroke-width:7.02387;stroke-linejoin:round;stroke-opacity:1;stop-color:#000000"
       x="717.62445"
       y="-899.86395"
       id="text5181"><tspan
         sodipodi:role="line"
         id="tspan5179"
         x="717.62445"
         y="-899.86395"
         style="stroke-width:7.02387" /></text><g
       transform="matrix(0.30701122,0,0,-0.30701122,-180.47095,978.10378)"
       id="g3022">
</g><g
       transform="matrix(0.30701122,0,0,-0.30701122,-180.47095,978.10378)"
       id="g3024">
</g><g
       transform="matrix(0.30701122,0,0,-0.30701122,-180.47095,978.10378)"
       id="g3026">
</g><g
       transform="matrix(0.30701122,0,0,-0.30701122,-180.47095,978.10378)"
       id="g3028">
</g><g
       transform="matrix(0.30701122,0,0,-0.30701122,-180.47095,978.10378)"
       id="g3030">
</g><g
       transform="matrix(0.30701122,0,0,-0.30701122,-180.47095,978.10378)"
       id="g3032">
</g><g
       transform="matrix(0.30701122,0,0,-0.30701122,-180.47095,978.10378)"
       id="g3034">
</g><g
       transform="matrix(0.30701122,0,0,-0.30701122,-180.47095,978.10378)"
       id="g3036">
</g><g
       transform="matrix(0.30701122,0,0,-0.30701122,-180.47095,978.10378)"
       id="g3038">
</g><g
       transform="matrix(0.30701122,0,0,-0.30701122,-180.47095,978.10378)"
       id="g3040">
</g><g
       transform="matrix(0.30701122,0,0,-0.30701122,-180.47095,978.10378)"
       id="g3042">
</g><g
       transform="matrix(0.30701122,0,0,-0.30701122,-180.47095,978.10378)"
       id="g3044">
</g><g
       transform="matrix(0.30701122,0,0,-0.30701122,-180.47095,978.10378)"
       id="g3046">
</g><g
       transform="matrix(0.30701122,0,0,-0.30701122,-180.47095,978.10378)"
       id="g3048">
</g><g
       transform="matrix(0.30701122,0,0,-0.30701122,-180.47095,978.10378)"
       id="g3050">
</g><text
       transform="scale(1,-1)"
       xml:space="preserve"
       style="font-weight:bold;font-size:160px;line-height:1;font-family:Montserrat;-inkscape-font-specification:'Montserrat Bold';writing-mode:lr-tb;opacity:0.06;fill:#8ae234;fill-opacity:1;fill-rule:evenodd;stroke:#babdb6;stroke-width:7.02387;stroke-linejoin:round;stroke-opacity:1;stop-color:#000000"
       x="879.71375"
       y="-1036.0093"
       id="text5181-6"><tspan
         sodipodi:role="line"
         id="tspan5179-1"
         x="879.71375"
         y="-1036.0093"
         style="stroke-width:7.02387" /></text><g
       transform="matrix(0.40818023,0,0,0.40818023,-8.435677,596.27136)"
       id="g1413"><path
         style="fill:#b38038;fill-opacity:1;stroke-width:0.379067"
         d="m 137.89947,944.81014 c -0.53107,1.54242 -1.36654,2.9969 -2.59737,4.22773 l -48.234,36.58035 c -6.29024,4.63447 -9.49601,4.63447 -15.67973,0 L 23.36286,949.03787 c -1.23083,-1.23083 -2.06971,-2.68531 -2.60116,-4.22773 l 58.46616,-51.28928 c 3.8e-4,-3.8e-4 58.67161,51.28928 58.67161,51.28928 z"
         id="path5045" /><path
         style="fill:#eeeeec;fill-opacity:1;stroke-width:0.379067"
         d="m 35.32053,977.77835 h 87.92459 V 904.51152 H 35.32053 Z"
         id="path5047" /><path
         style="fill:#ceac56;fill-opacity:1;stroke-width:0.379067"
         d="m 26.70395,876.43441 52.5095,40.90323 52.64483,-40.90702 c 1.94537,0.99278 3.54276,2.53141 4.60869,4.4366 L 87.0681,919.66738 c -6.23527,4.6015 -9.5142,4.67466 -15.67973,0 l -49.3223,-38.73799 c 1.06252,-1.9268 2.66712,-3.49121 4.63788,-4.49498 z"
         id="path5049" /><path
         style="fill:#ceac56;fill-opacity:1;stroke-width:0.379067"
         d="m 79.2832,900.84784 58.61665,43.9623 v -62.27995 c 0,-6.07038 -4.92029,-10.99067 -10.99067,-10.99067 H 31.65722 c -6.07038,0 -10.99067,4.92029 -10.99067,10.99067 v 62.27995 c 0,0 58.61665,-43.9623 58.61665,-43.9623 z"
         id="path5053" /><path
         style="fill:#ceac56;fill-opacity:1;stroke-width:0.379067"
         d="m 128.08125,871.66082 c 2.3741,0.25284 4.52076,1.24561 6.1951,2.76946 l -55.0629,42.91115 -54.93477,-42.91115 c 1.67775,-1.52764 3.821,-2.517 6.2023,-2.77325 z"
         id="path5055" /><path
         style="fill:#d7be6e;fill-opacity:1;stroke-width:0.379067"
         d="m 22.06607,877.26608 c 1.06252,-1.92717 2.67053,-3.4912 4.63788,-4.49876 l 52.5095,40.89981 52.64483,-40.90323 c 1.94537,0.99278 3.54276,2.53141 4.60869,4.4366 L 87.0681,916.0109 c -6.92025,5.12537 -8.59838,5.35963 -15.67973,0 -3.8e-4,0 -49.3223,-38.74482 -49.3223,-38.74482 z"
         id="path5057" /><text
         xml:space="preserve"
         style="font-weight:bold;font-size:52.255px;line-height:4.2;font-family:Montserrat;-inkscape-font-specification:'Montserrat Bold';writing-mode:lr-tb;fill:#7a7a7a;fill-opacity:1;fill-rule:evenodd;stroke:none;stroke-width:0.870917;stroke-linecap:round;stroke-linejoin:round;stroke-dashoffset:30;stroke-opacity:1;stop-color:#000000"
         x="53.483276"
         y="-935.90894"
         id="text5155"
         transform="scale(1,-1)"><tspan
           sodipodi:role="line"
           id="tspan5153"
           x="53.483276"
           y="-935.90894"
           style="fill:#7a7a7a;fill-opacity:1;stroke:none;stroke-width:0.870917">@</tspan></text></g></g></svg>
